<svg width="800" height="800" viewBox="0 0 24 24" fill="none" xmlns="http://www.w3.org/2000/svg"><path fill-rule="evenodd" clip-rule="evenodd" d="M11.996.008C8.738.008 8.33.022 7.05.08 5.773.138 4.901.341 4.138.638A5.88 5.88 0 0 0 2.013 2.02 5.88 5.88 0 0 0 .63 4.146c-.297.763-.5 1.635-.558 2.912C.014 8.338 0 8.746 0 12.004s.014 3.667.072 4.946C.13 18.227.333 19.1.63 19.862a5.88 5.88 0 0 0 1.383 2.125 5.881 5.881 0 0 0 2.125 1.384c.763.296 1.635.499 2.912.557 1.28.058 1.688.072 4.946.072s3.667-.014 4.946-.072c1.277-.058 2.15-.261 2.912-.558a5.882 5.882 0 0 0 2.125-1.383 5.88 5.88 0 0 0 1.384-2.125c.296-.763.499-1.635.557-2.912.059-1.28.072-1.688.072-4.946s-.013-3.666-.072-4.946c-.058-1.277-.26-2.149-.557-2.912a5.881 5.881 0 0 0-1.384-2.125A5.881 5.881 0 0 0 19.854.638C19.091.34 18.22.138 16.942.08c-1.28-.058-1.688-.072-4.946-.072Zm0 2.161c3.203 0 3.583.013 4.848.07 1.17.054 1.804.249 2.227.413.56.218.96.478 1.38.898.42.42.68.819.897 1.379.164.423.36 1.058.413 2.228.058 1.264.07 1.644.07 4.847 0 3.203-.012 3.583-.07 4.848-.053 1.17-.249 1.804-.413 2.227-.218.56-.478.96-.897 1.38-.42.42-.82.68-1.38.897-.423.164-1.058.36-2.227.413-1.265.058-1.644.07-4.848.07-3.203 0-3.582-.012-4.847-.07-1.17-.053-1.805-.249-2.228-.413a3.717 3.717 0 0 1-1.38-.898c-.419-.42-.679-.819-.897-1.379-.164-.423-.36-1.058-.413-2.227-.057-1.265-.07-1.645-.07-4.848s.013-3.583.07-4.847c.054-1.17.25-1.805.413-2.228.218-.56.478-.96.898-1.38.42-.42.82-.68 1.38-.897.422-.164 1.057-.36 2.227-.413 1.265-.057 1.644-.07 4.847-.07Zm0 13.834a3.999 3.999 0 1 1 0-7.998 3.999 3.999 0 0 1 0 7.998Zm0-10.16a6.16 6.16 0 1 0 0 12.321 6.16 6.16 0 0 0 0-12.32ZM18.4 7.04a1.44 1.44 0 1 0 0-2.88 1.44 1.44 0 0 0 0 2.88Z" fill="#758CA3"/></svg>